<svg xmlns="http://www.w3.org/2000/svg" viewBox="0 0 480.012 480.012"><path d="M472.006 320h-8V16h8a8 8 0 0 0 0-16h-464a8 8 0 0 0 0 16h8v304h-8a8 8 0 0 0 0 16H140.91L96.422 469.472a8.01 8.01 0 0 0 15.2 5.056L157.766 336h164.48l46.176 138.528a8.01 8.01 0 0 0 15.2-5.056L339.102 336h132.904a8 8 0 0 0 0-16zm-24 0h-416V16h416v304z"/><path d="M264.006 32c-13.255 0-24 10.745-24 24s10.745 24 24 24 24-10.745 24-24-10.745-24-24-24zm0 32a8 8 0 1 1 0-16 8 8 0 0 1 0 16zM264.006 96c-13.255 0-24 10.745-24 24s10.745 24 24 24 24-10.745 24-24-10.745-24-24-24zm0 32a8 8 0 1 1 0-16 8 8 0 0 1 0 16zM264.006 160c-13.255 0-24 10.745-24 24s10.745 24 24 24 24-10.745 24-24-10.745-24-24-24zm0 32a8 8 0 1 1 0-16 8 8 0 0 1 0 16zM304.006 48h80v16h-80zM400.006 48h32v16h-32zM304.006 112h80v16h-80zM400.006 112h32v16h-32zM304.006 176h80v16h-80zM400.006 176h32v16h-32zM328.006 288h-8v-40a8 8 0 0 0-8-8h-32a8 8 0 0 0-8 8v40h-16v-24a8 8 0 0 0-8-8h-32a8 8 0 0 0-8 8v24h-16v-56a8 8 0 0 0-8-8h-32a8 8 0 0 0-8 8v56h-16v-40a8 8 0 0 0-8-8h-32a8 8 0 0 0-8 8v40h-16v-72a8 8 0 0 0-16 0v80a8 8 0 0 0 8 8h272a8 8 0 0 0 0-16zm-216 0h-16v-32h16v32zm64 0h-16v-48h16v48zm64 0h-16v-16h16v16zm64 0h-16v-32h16v32zM424.006 240h-16a8 8 0 0 0 0 16h16a8 8 0 0 0 0-16zM376.006 240h-16a8 8 0 0 0 0 16h16a8 8 0 0 0 0-16zM376.006 272h-16a8 8 0 0 0 0 16h16a8 8 0 0 0 0-16zM424.006 272h-16a8 8 0 0 0 0 16h16a8 8 0 0 0 0-16zM136.006 32c-48.601 0-88 39.399-88 88-.333 48.269 38.527 87.667 86.796 88 .401.003.803.003 1.204 0 48.601 0 88-39.399 88-88s-39.399-88-88-88zm8 16.44c33.406 3.79 59.766 30.153 63.552 63.56h-16.12c-3.585-24.559-22.873-43.847-47.432-47.432V48.44zm20.288 43.281c15.619 15.623 15.615 40.95-.009 56.569-15.623 15.619-40.95 15.615-56.569-.009A39.996 39.996 0 0 1 96.005 120a39.712 39.712 0 0 1 11.72-28.288c15.624-15.619 40.951-15.615 56.569.009zM128.006 48.44v16.12a55.305 55.305 0 0 0-25.536 10.584L91.062 63.736a71.284 71.284 0 0 1 36.944-15.296zm-.01 143.095c-39.517-4.428-67.963-40.053-63.535-79.57a72.01 72.01 0 0 1 15.288-36.909l11.4 11.4c-18.5 24.785-13.405 59.874 11.38 78.374 24.785 18.5 59.874 13.405 78.374-11.38A56 56 0 0 0 191.445 128h16.12c-4.427 39.517-40.052 67.963-79.569 63.535z"/></svg>