<?xml version="1.0" encoding="iso-8859-1"?>
<!-- Generator: Adobe Illustrator 19.0.0, SVG Export Plug-In . SVG Version: 6.00 Build 0)  -->
<svg version="1.1" id="Capa_1" xmlns="http://www.w3.org/2000/svg" xmlns:xlink="http://www.w3.org/1999/xlink" x="0px" y="0px"
	 viewBox="0 0 480.012 480.012" style="enable-background:new 0 0 480.012 480.012;" xml:space="preserve">
<g>
	<g>
		<path d="M472.006,320h-8V16h8c4.418,0,8-3.582,8-8s-3.582-8-8-8h-464c-4.418,0-8,3.582-8,8s3.582,8,8,8h8v304h-8
			c-4.418,0-8,3.582-8,8s3.582,8,8,8H140.91L96.422,469.472c-1.396,4.197,0.875,8.732,5.072,10.128
			c4.197,1.396,8.732-0.875,10.128-5.072L157.766,336h164.48l46.176,138.528c1.396,4.197,5.931,6.468,10.128,5.072
			c4.197-1.396,6.468-5.931,5.072-10.128L339.102,336h132.904c4.418,0,8-3.582,8-8S476.424,320,472.006,320z M448.006,320h-416V16
			h416V320z"/>
	</g>
</g>
<g>
	<g>
		<path d="M264.006,32c-13.255,0-24,10.745-24,24s10.745,24,24,24s24-10.745,24-24S277.261,32,264.006,32z M264.006,64
			c-4.418,0-8-3.582-8-8s3.582-8,8-8s8,3.582,8,8S268.424,64,264.006,64z"/>
	</g>
</g>
<g>
	<g>
		<path d="M264.006,96c-13.255,0-24,10.745-24,24s10.745,24,24,24s24-10.745,24-24S277.261,96,264.006,96z M264.006,128
			c-4.418,0-8-3.582-8-8s3.582-8,8-8s8,3.582,8,8S268.424,128,264.006,128z"/>
	</g>
</g>
<g>
	<g>
		<path d="M264.006,160c-13.255,0-24,10.745-24,24s10.745,24,24,24s24-10.745,24-24S277.261,160,264.006,160z M264.006,192
			c-4.418,0-8-3.582-8-8s3.582-8,8-8s8,3.582,8,8S268.424,192,264.006,192z"/>
	</g>
</g>
<g>
	<g>
		<rect x="304.006" y="48" width="80" height="16"/>
	</g>
</g>
<g>
	<g>
		<rect x="400.006" y="48" width="32" height="16"/>
	</g>
</g>
<g>
	<g>
		<rect x="304.006" y="112" width="80" height="16"/>
	</g>
</g>
<g>
	<g>
		<rect x="400.006" y="112" width="32" height="16"/>
	</g>
</g>
<g>
	<g>
		<rect x="304.006" y="176" width="80" height="16"/>
	</g>
</g>
<g>
	<g>
		<rect x="400.006" y="176" width="32" height="16"/>
	</g>
</g>
<g>
	<g>
		<path d="M328.006,288h-8v-40c0-4.418-3.582-8-8-8h-32c-4.418,0-8,3.582-8,8v40h-16v-24c0-4.418-3.582-8-8-8h-32
			c-4.418,0-8,3.582-8,8v24h-16v-56c0-4.418-3.582-8-8-8h-32c-4.418,0-8,3.582-8,8v56h-16v-40c0-4.418-3.582-8-8-8h-32
			c-4.418,0-8,3.582-8,8v40h-16v-72c0-4.418-3.582-8-8-8s-8,3.582-8,8v80c0,4.418,3.582,8,8,8h272c4.418,0,8-3.582,8-8
			S332.424,288,328.006,288z M112.006,288h-16v-32h16V288z M176.006,288h-16v-48h16V288z M240.006,288h-16v-16h16V288z M304.006,288
			h-16v-32h16V288z"/>
	</g>
</g>
<g>
	<g>
		<path d="M424.006,240h-16c-4.418,0-8,3.582-8,8s3.582,8,8,8h16c4.418,0,8-3.582,8-8S428.424,240,424.006,240z"/>
	</g>
</g>
<g>
	<g>
		<path d="M376.006,240h-16c-4.418,0-8,3.582-8,8s3.582,8,8,8h16c4.418,0,8-3.582,8-8S380.424,240,376.006,240z"/>
	</g>
</g>
<g>
	<g>
		<path d="M376.006,272h-16c-4.418,0-8,3.582-8,8s3.582,8,8,8h16c4.418,0,8-3.582,8-8S380.424,272,376.006,272z"/>
	</g>
</g>
<g>
	<g>
		<path d="M424.006,272h-16c-4.418,0-8,3.582-8,8s3.582,8,8,8h16c4.418,0,8-3.582,8-8S428.424,272,424.006,272z"/>
	</g>
</g>
<g>
	<g>
		<path d="M136.006,32c-48.601,0-88,39.399-88,88c-0.333,48.269,38.527,87.667,86.796,88c0.401,0.003,0.803,0.003,1.204,0
			c48.601,0,88-39.399,88-88S184.607,32,136.006,32z M144.006,48.44c33.406,3.79,59.766,30.153,63.552,63.56h-16.12
			c-3.585-24.559-22.873-43.847-47.432-47.432V48.44z M164.294,91.721c15.619,15.623,15.615,40.95-0.009,56.569
			c-15.623,15.619-40.95,15.615-56.569-0.009c-7.499-7.501-11.712-17.674-11.711-28.281c-0.032-10.617,4.189-20.804,11.72-28.288
			C123.349,76.093,148.676,76.097,164.294,91.721z M128.006,48.44v16.12c-9.271,1.31-18.057,4.951-25.536,10.584L91.062,63.736
			C101.665,55.217,114.484,49.91,128.006,48.44z M127.996,191.535c-39.517-4.428-67.963-40.053-63.535-79.57
			c1.513-13.499,6.813-26.294,15.288-36.909l11.4,11.4c-18.5,24.785-13.405,59.874,11.38,78.374
			c24.785,18.5,59.874,13.405,78.374-11.38c5.578-7.473,9.202-16.221,10.542-25.45h16.12
			C203.138,167.517,167.513,195.963,127.996,191.535z"/>
	</g>
</g>
<g>
</g>
<g>
</g>
<g>
</g>
<g>
</g>
<g>
</g>
<g>
</g>
<g>
</g>
<g>
</g>
<g>
</g>
<g>
</g>
<g>
</g>
<g>
</g>
<g>
</g>
<g>
</g>
<g>
</g>
</svg>
