<svg xmlns="http://www.w3.org/2000/svg" viewBox="0 0 480 480"><path d="M412 16h-24V8a8 8 0 0 0-16 0v8h-16V8a8 8 0 0 0-16 0v8h-16V8a8 8 0 0 0-16 0v8h-16V8a8 8 0 0 0-16 0v8H164V8a8 8 0 0 0-16 0v8h-16V8a8 8 0 0 0-16 0v8h-16V8a8 8 0 0 0-16 0v8H68V8a8 8 0 0 0-16 0v8H28a8 8 0 0 0-8 8v376a8 8 0 0 0 8 8h232.4a8 8 0 0 0 8-8.56l-.064-.928c-.176-2.16-.336-4.32-.336-6.512.026-7.918.96-15.807 2.784-23.512 1.78-7.67 4.44-15.109 7.928-22.168.344-.704.656-1.416 1.016-2.112 1.064-2.032 2.216-4 3.408-5.96.376-.616.744-1.248 1.136-1.856a101.155 101.155 0 0 1 4.096-5.944c.296-.408.6-.8.904-1.216a116.91 116.91 0 0 1 4.984-6.08l.24-.264a105.42 105.42 0 0 1 41.848-28.488l1.408-.52c2.16-.76 4.352-1.432 6.568-2.056 1-.28 2.016-.536 3.032-.8 1.872-.464 3.752-.896 5.656-1.256 1.6-.296 3.264-.52 4.904-.744 1.448-.208 2.88-.44 4.344-.576 3.2-.304 6.456-.496 9.744-.496 2.168 0 4.304.168 6.4.312l1 .072h.2c10.1.759 20.036 2.982 29.496 6.6A8 8 0 0 0 420 287.488V24a8 8 0 0 0-8-8zM268.432 331.704c-.28.456-.576.888-.832 1.344-1.152 2.024-2.192 4.112-3.2 6.208-.568 1.152-1.144 2.296-1.672 3.472a115.17 115.17 0 0 0-2.456 5.88c-.08.2-.168.384-.248.584V312h22.808a120.829 120.829 0 0 0-14.4 19.704zM308 290.672a120.643 120.643 0 0 0-8 5.552V296h-40v-48h48v42.672zM308 232h-48v-48h48v48zm0-64h-48v-48h48v48zm64 16v48h-48v-48h48zm-48-16v-48h48v48h-48zm48.016 104c-3.744 0-7.44.216-11.104.56-1.6.144-3.096.392-4.648.592-1.96.264-3.912.536-5.84.896s-4.048.8-6.048 1.288c-1.224.296-2.448.608-3.664.944-2.4.656-4.8 1.368-7.2 2.168-.304.112-.6.232-.904.336-2.912 1.016-5.792 2.08-8.592 3.304V248h48v24zM404 276.416a118.885 118.885 0 0 0-16-3.32V112a8 8 0 0 0-8-8H60a8 8 0 0 0-8 8v256a8 8 0 0 0 8 8h193.192A119.982 119.982 0 0 0 252 392H36V88h368v188.416zM196 296v-48h48v48h-48zm48 16v48h-48v-48h48zm-48-80v-48h48v48h-48zm0-64v-48h48v48h-48zm-64 128v-48h48v48h-48zm48 16v48h-48v-48h48zm-48-80v-48h48v48h-48zm0-64v-48h48v48h-48zM68 296v-48h48v48H68zm48 16v48H68v-48h48zm-48-80v-48h48v48H68zm0-64v-48h48v48H68zm336-96H36V32h16v8a8 8 0 0 0 16 0v-8h16v8a8 8 0 0 0 16 0v-8h16v8a8 8 0 0 0 16 0v-8h16v8a8 8 0 0 0 16 0v-8h112v8a8 8 0 0 0 16 0v-8h16v8a8 8 0 0 0 16 0v-8h16v8a8 8 0 0 0 16 0v-8h16v8a8 8 0 0 0 16 0v-8h16v40z"/><path d="M372 304c-48.601 0-88 39.399-88 88s39.399 88 88 88 88-39.399 88-88c-.057-48.577-39.423-87.943-88-88zm0 160c-39.764 0-72-32.236-72-72 0-39.765 32.236-72 72-72 39.765 0 72 32.235 72 72-.044 39.746-32.254 71.956-72 72z"/><path d="M417.46 346.344a8 8 0 0 0-11.116 0L372 380.688l-18.344-18.344a8 8 0 0 0-11.312.196 8 8 0 0 0 0 11.116l24 24a8 8 0 0 0 11.312 0l40-40a8 8 0 0 0-.196-11.312z"/></svg>