<svg xmlns="http://www.w3.org/2000/svg" viewBox="0 0 480 480"><path d="M360 4H8a8 8 0 0 0-8 8v456a8 8 0 0 0 8 8h352a8 8 0 0 0 8-8V12a8 8 0 0 0-8-8zm-8 456H16V20h336v440z"/><path d="M224 84h-80a8 8 0 0 0 0 16h80a8 8 0 0 0 0-16zM120 180H72a8 8 0 0 0 0 16h48a8 8 0 0 0 0-16zM328 180H152a8 8 0 0 0 0 16h176a8 8 0 0 0 0-16zM328 212H40a8 8 0 0 0 0 16h288a8 8 0 0 0 0-16zM248 244H40a8 8 0 0 0 0 16h208a8 8 0 0 0 0-16zM328 244h-48a8 8 0 0 0 0 16h48a8 8 0 0 0 0-16zM328 276H184a8 8 0 0 0 0 16h144a8 8 0 0 0 0-16zM152 276H40a8 8 0 0 0 0 16h112a8 8 0 0 0 0-16zM328 308h-32a8 8 0 0 0 0 16h32a8 8 0 0 0 0-16zM80 308H40a8 8 0 0 0 0 16h40a8 8 0 0 0 0-16zM264 308H112a8 8 0 0 0 0 16h152a8 8 0 0 0 0-16zM320 404H208a8 8 0 0 0 0 16h112a8 8 0 0 0 0-16zM256 52H112a8 8 0 0 0 0 16h144a8 8 0 0 0 0-16zM472 76h-24c0-17.673-14.327-32-32-32-17.673 0-32 14.327-32 32v288a84.662 84.662 0 0 0 24.976 60.288l1.368 1.368a8 8 0 0 0 11.312 0l1.368-1.368A84.662 84.662 0 0 0 448 364V92h16v72h16V84a8 8 0 0 0-8-8zm-56 332.288A68.602 68.602 0 0 1 400.456 372h31.088A68.602 68.602 0 0 1 416 408.288zM432 356h-32V92h32v264zM400 76c0-8.837 7.163-16 16-16s16 7.163 16 16h-32zM328 132h-96a8 8 0 0 0 0 16h96a8 8 0 0 0 0-16zM216 340H40a8 8 0 0 0 0 16h176a8 8 0 0 0 0-16z"/></svg>